<svg viewBox="0 0 512 512" fill="none" xmlns="http://www.w3.org/2000/svg">
  <defs>
    <linearGradient id="bg" x1="0%" y1="0%" x2="100%" y2="100%">
      <stop offset="0%" style="stop-color:#007aff;stop-opacity:1" />
      <stop offset="100%" style="stop-color:#5856d6;stop-opacity:1" />
    </linearGradient>
    <linearGradient id="glass" x1="0%" y1="0%" x2="0%" y2="100%">
      <stop offset="0%" style="stop-color:#ffffff;stop-opacity:0.25" />
      <stop offset="50%" style="stop-color:#ffffff;stop-opacity:0.05" />
      <stop offset="100%" style="stop-color:#ffffff;stop-opacity:0" />
    </linearGradient>
  </defs>

  <!-- Background rounded square -->
  <rect x="16" y="16" width="480" height="480" rx="96" fill="url(#bg)"/>

  <!-- Glass highlight -->
  <rect x="16" y="16" width="480" height="240" rx="96" fill="url(#glass)"/>

  <!-- Telegram-style paper plane / message icon -->
  <g transform="translate(256, 256)">
    <!-- Main message bubble -->
    <path d="M-140 -80 L140 -80 C156.569 -80 170 -66.569 170 -50 L170 50 C170 66.569 156.569 80 140 80 L-60 80 L-100 120 L-100 80 L-140 80 C-156.569 80 -170 66.569 -170 50 L-170 -50 C-170 -66.569 -156.569 -80 -140 -80 Z" fill="white" fill-opacity="0.95"/>

    <!-- Text lines -->
    <rect x="-120" y="-40" width="160" height="12" rx="6" fill="#007aff" fill-opacity="0.6"/>
    <rect x="-120" y="-10" width="200" height="12" rx="6" fill="#007aff" fill-opacity="0.4"/>
    <rect x="-120" y="20" width="140" height="12" rx="6" fill="#007aff" fill-opacity="0.3"/>
  </g>
</svg>
